# xmcd
#
# Track frame offsets:
#	150
#	18054
#	33602
#	47070
#	62059
#	79834
#	98382
#	114526
#	131808
#	146195
#	158880
#	175331
#	194362
#	211313
#	224688
#	238850
#	255373
#	273185
#	290592
#	306704
#
# Disc length: 4280 seconds
#
# Revision: 2
# Processed by: cddbd v1.5.2PL0 Copyright (c) Steve Scherf et al.
# Submitted via: EasyCDDAExtractor 11.5.0.1
#
DISCID=3010b614
DTITLE=Various Artist - NCT 037
DYEAR=2002
DGENRE=Country
TTITLE0=Tim McGraw - Unbroken
TTITLE1=Chris Cagle - Country By The Grace Of God
TTITLE2=Brooks and Dunn - My Heart Is Lost To You
TTITLE3=Marcel - Country Rock Star
TTITLE4=Joe Nichols - The Impossible
TTITLE5=Martina McBride - Where Would You Be
TTITLE6=Cyndi Thomson - I'm Gone
TTITLE7=Jeff Carson - Until We Fall Back In Love Again
TTITLE8=Chris Ledoux - Bareback Jack
TTITLE9=Little Big Town - Don't Waste My Time
TTITLE10=Diamond Rio - Beautiful Mess
TTITLE11=Jack Ingram - One Thing
TTITLE12=Mike Walker - If There's A Chance To Say I Love You
TTITLE13=Rodney Atkins - Sing Along
TTITLE14=Phil Vassar - American Child
TTITLE15=Sawyer Brown - Can You Hear Me Now
TTITLE16=Rebecca Lynn Howard - Forgive
TTITLE17=Anthony Smith - If That Ain't Country
TTITLE18=Aaron Tippin - I'll Take Love Over Money
TTITLE19=Jeffrey Steele - Good To Go
EXTD=
EXTT0=
EXTT1=
EXTT2=
EXTT3=
EXTT4=
EXTT5=
EXTT6=
EXTT7=
EXTT8=
EXTT9=
EXTT10=
EXTT11=
EXTT12=
EXTT13=
EXTT14=
EXTT15=
EXTT16=
EXTT17=
EXTT18=
EXTT19=
PLAYORDER=
